# xmcd
#
# Track frame offsets:
#	150
#	9350
#	17787
#	27095
#	35329
#	45008
#	55772
#	64084
#	75648
#	84385
#	94508
#	105244
#	114855
#	123850
#	133147
#
# Disc length: 1884 seconds
#
# Revision: 1
# Processed by: cddbd v1.5.2PL0 Copyright (c) Steve Scherf et al.
# Submitted via: audiograbber 1.83.01
#
DISCID=9e075a0f
DTITLE=Morris Taylor - Original Fun And Love Songs Morris Taylor
DYEAR=1900
DGENRE=
TTITLE0=Stuck Car Race
TTITLE1=Just Say So
TTITLE2=Home Shopping Network Blues
TTITLE3=Julie
TTITLE4=Big Chiefs On The Warpath
TTITLE5=Forbidden Love
TTITLE6=Kari-okie-kid
TTITLE7=Teardrops
TTITLE8=Boogie, Boogie, Boogie Guitar Man
TTITLE9=I´m Blue For My Baby
TTITLE10=Tiny Teardrops
TTITLE11=Cry Baby
TTITLE12=Hey Lillte Dove
TTITLE13=Little White Dove
TTITLE14=Hold Back The Tears
EXTD=
EXTT0=
EXTT1=
EXTT2=
EXTT3=
EXTT4=
EXTT5=
EXTT6=
EXTT7=
EXTT8=
EXTT9=
EXTT10=
EXTT11=
EXTT12=
EXTT13=
EXTT14=
PLAYORDER=
